<?xml version="1.0" standalone="no"?>
<!DOCTYPE svg PUBLIC "-//W3C//DTD SVG 20010904//EN"
 "http://www.w3.org/TR/2001/REC-SVG-20010904/DTD/svg10.dtd">
<svg version="1.0" xmlns="http://www.w3.org/2000/svg"
 width="619.000000pt" height="628.000000pt" viewBox="0 0 619.000000 628.000000"
 preserveAspectRatio="xMidYMid meet">

<g transform="translate(0.000000,628.000000) scale(0.100000,-0.100000)"
fill="#000000" stroke="none">
<path d="M1623 5933 c-50 -10 -130 -145 -166 -278 -8 -33 -21 -80 -27 -105 -7
-25 -15 -115 -18 -200 -2 -85 -7 -195 -9 -245 -3 -49 2 -180 12 -290 l17 -201
-59 -114 c-102 -198 -158 -393 -168 -584 -2 -48 -6 -91 -9 -93 -3 -3 -42 0
-88 7 -131 19 -424 -3 -476 -37 -19 -11 -23 -22 -20 -51 5 -54 38 -70 115 -54
74 15 351 16 425 1 l55 -11 6 -74 c4 -40 8 -79 9 -85 2 -9 -14 -14 -52 -16
-131 -8 -274 -42 -386 -93 -50 -23 -62 -33 -67 -56 -8 -40 16 -74 52 -74 15 0
54 9 87 20 136 47 251 71 329 68 l76 -3 26 -64 c14 -35 45 -102 68 -149 l43
-84 -61 6 c-34 3 -130 9 -212 12 l-151 7 -29 -26 c-30 -25 -30 -26 -28 -126
l3 -101 -59 0 c-43 0 -65 -5 -82 -19 -23 -18 -24 -26 -24 -131 l0 -112 -65
-18 c-36 -10 -90 -29 -120 -43 -54 -25 -160 -114 -160 -134 0 -6 -7 -16 -16
-24 -24 -20 -71 -118 -88 -186 -33 -127 -6 -309 63 -418 54 -86 211 -225 254
-225 7 0 17 -4 23 -10 13 -13 140 -56 191 -65 l42 -7 5 -51 c3 -29 8 -110 11
-182 11 -308 16 -344 43 -365 19 -16 41 -20 101 -20 74 -1 153 -7 371 -29 110
-12 136 -16 286 -50 50 -12 102 -21 115 -21 13 0 33 -7 43 -15 11 -8 31 -15
45 -15 23 0 65 -12 186 -52 17 -6 41 -12 55 -15 14 -3 32 -11 40 -18 8 -7 33
-16 55 -19 22 -4 64 -18 94 -32 29 -13 58 -24 64 -24 6 0 40 -13 76 -29 36
-16 86 -36 111 -46 25 -9 68 -27 95 -40 282 -131 403 -152 564 -95 46 16 92
36 101 45 9 8 27 15 39 15 13 0 44 11 70 24 64 34 259 116 275 116 7 0 34 11
61 25 27 13 71 29 98 35 27 6 61 17 76 24 40 21 105 41 226 70 61 15 124 31
141 36 16 5 50 14 75 19 24 5 80 17 124 26 44 9 91 18 105 20 14 1 57 7 95 13
124 20 137 21 307 28 203 9 202 8 206 123 1 42 4 121 6 176 2 55 7 150 11 212
l7 111 60 11 c175 31 373 160 456 298 96 161 105 325 29 508 -59 142 -233 282
-375 301 -38 5 -52 11 -53 23 -2 27 1 83 7 143 5 52 3 59 -20 83 -22 22 -34
25 -91 25 l-65 0 0 94 c0 86 -2 98 -24 123 -24 27 -27 28 -113 26 -48 -1 -141
-5 -205 -9 -65 -3 -118 -2 -118 2 0 5 9 20 20 34 11 14 20 30 20 36 0 6 18 48
40 93 22 45 40 89 40 97 0 10 6 13 18 10 9 -3 50 -10 89 -16 93 -13 229 -43
317 -70 79 -25 113 -20 126 16 13 33 13 47 -2 67 -24 32 -250 97 -412 120
l-88 12 7 80 c4 44 9 84 12 89 7 11 324 1 447 -15 102 -12 130 -5 147 38 18
48 -11 81 -76 89 -154 17 -268 24 -376 24 l-127 0 -6 26 c-4 15 -11 72 -16
128 -9 101 -35 240 -48 260 -11 17 -32 79 -32 95 0 8 -32 79 -71 158 l-72 144
17 280 c9 154 14 284 12 287 -2 4 -7 54 -10 112 -12 205 -22 278 -52 370 -8
25 -14 51 -14 58 0 8 -13 43 -30 79 -77 167 -151 196 -306 122 -34 -16 -68
-29 -75 -29 -8 0 -41 -20 -74 -45 -33 -25 -63 -45 -68 -45 -15 0 -158 -122
-240 -205 -97 -97 -233 -254 -305 -353 -56 -74 -63 -78 -122 -63 -67 18 -130
25 -330 35 -126 7 -313 -8 -473 -38 -24 -5 -31 0 -55 37 -15 23 -35 51 -44 62
-9 11 -45 56 -79 100 -65 83 -131 155 -234 255 -78 75 -190 170 -201 170 -5 0
-36 21 -69 46 -33 24 -71 47 -85 51 -14 3 -30 9 -35 14 -33 25 -166 52 -212
42z m195 -189 c134 -72 338 -247 471 -403 35 -42 67 -78 71 -81 4 -3 19 -23
33 -45 85 -130 134 -189 162 -198 29 -10 100 -4 280 25 86 13 297 16 385 5 36
-5 115 -15 175 -23 61 -7 125 -14 144 -14 40 0 40 0 219 225 169 212 403 429
529 493 21 11 52 27 69 36 18 9 49 17 70 19 39 2 39 1 71 -63 39 -77 60 -174
74 -330 16 -173 11 -610 -7 -757 -7 -57 9 -109 57 -188 22 -36 44 -78 50 -93
5 -15 13 -36 18 -47 60 -136 100 -323 101 -472 0 -56 -2 -63 -20 -63 -24 0
-16 1 -92 -16 -116 -26 -135 -43 -126 -105 5 -41 43 -50 123 -29 124 33 123
34 104 -76 l-11 -62 -66 -7 c-82 -8 -141 -24 -164 -43 -43 -37 -2 -109 55 -98
80 16 127 18 127 7 0 -11 -60 -129 -88 -175 -7 -11 -28 -46 -46 -76 l-32 -55
-69 -12 c-64 -11 -149 -32 -280 -67 -53 -15 -264 -89 -352 -124 -77 -32 -325
-156 -369 -186 -21 -14 -42 -26 -46 -26 -4 0 -42 -24 -83 -52 -42 -29 -84 -57
-93 -63 -27 -16 -155 -120 -171 -138 -7 -10 -17 -17 -21 -17 -4 0 -30 23 -58
50 -28 28 -55 50 -60 50 -5 0 -15 6 -21 14 -20 24 -232 161 -326 212 -49 26
-107 58 -127 71 -21 13 -41 23 -45 23 -5 0 -30 11 -58 24 -27 14 -99 44 -160
67 -60 22 -118 45 -127 50 -10 5 -26 9 -36 9 -10 0 -35 9 -57 20 -22 11 -46
20 -55 20 -9 0 -36 6 -61 14 -38 12 -171 43 -264 61 -25 5 -39 21 -87 103 -73
125 -114 210 -105 218 3 4 34 1 67 -6 53 -11 62 -11 85 4 22 14 26 24 23 54
-4 46 -30 60 -142 76 -89 13 -88 12 -99 119 -5 55 -3 56 98 31 54 -14 67 -14
92 -2 31 14 42 53 24 86 -9 18 -99 49 -190 67 l-34 7 6 117 c6 118 34 269 60
332 52 122 65 150 96 204 18 33 39 77 47 99 16 44 19 217 4 232 -25 25 -22
507 6 694 19 128 62 266 96 308 18 21 78 8 156 -34z m-448 -2810 c74 -8 142
-16 150 -17 8 -2 33 -7 55 -12 113 -21 286 -69 425 -115 143 -48 361 -133 385
-150 6 -4 51 -30 100 -58 168 -92 181 -101 261 -155 76 -53 155 -126 124 -115
-42 16 -165 65 -245 98 -49 20 -101 40 -115 44 -14 4 -34 11 -45 16 -81 37
-140 60 -151 60 -8 0 -42 11 -76 24 -248 94 -806 238 -973 252 -53 4 -226 31
-229 36 -2 1 -1 28 1 60 l5 56 97 -5 c53 -2 157 -11 231 -19z m3722 -24 c1
-22 2 -48 2 -57 1 -18 -34 -26 -214 -48 -58 -7 -196 -34 -235 -45 -16 -5 -46
-12 -65 -14 -40 -5 -174 -41 -330 -86 -58 -17 -123 -35 -145 -41 -22 -5 -49
-14 -60 -19 -11 -5 -42 -16 -70 -24 -103 -31 -406 -137 -457 -160 -29 -13 -80
-34 -113 -46 -33 -12 -74 -28 -92 -37 -62 -30 -55 -6 13 44 169 125 381 243
579 323 72 29 139 56 150 61 29 12 267 84 355 108 151 40 425 78 578 80 l102
1 2 -40z m-3938 -230 c28 -5 71 -11 96 -14 25 -3 70 -10 100 -16 30 -6 66 -13
80 -15 109 -20 390 -89 417 -103 10 -5 63 -22 118 -37 55 -14 109 -31 120 -35
11 -5 67 -25 125 -44 137 -46 227 -79 287 -106 26 -12 74 -30 105 -40 31 -10
67 -25 80 -33 13 -8 36 -18 52 -21 15 -4 47 -15 70 -26 118 -53 256 -70 372
-45 63 14 311 102 409 146 66 30 458 163 580 198 44 13 95 29 113 37 37 16
250 71 327 84 28 5 97 18 155 30 140 27 374 60 432 60 l47 0 -4 -37 c-1 -21
-3 -50 -4 -65 -1 -23 -6 -28 -38 -33 -21 -3 -46 -10 -55 -16 -10 -5 -25 -9
-33 -9 -9 0 -36 -20 -61 -45 -27 -27 -58 -48 -77 -52 -60 -12 -113 -41 -160
-88 -26 -25 -47 -52 -47 -58 0 -7 -6 -24 -14 -38 -8 -16 -13 -53 -12 -94 1
-55 -3 -75 -19 -99 -75 -111 -74 -235 3 -394 52 -106 194 -203 324 -221 32 -4
60 -10 62 -12 7 -6 7 -92 0 -199 -4 -52 -7 -132 -9 -178 -1 -45 -5 -85 -8 -88
-6 -6 -55 -10 -222 -19 -124 -6 -203 -15 -232 -26 -13 -5 -37 -9 -52 -9 -25 0
-102 -16 -311 -65 -220 -51 -548 -162 -718 -241 -51 -24 -101 -44 -111 -44
-10 0 -24 -6 -30 -14 -6 -7 -33 -21 -59 -31 -26 -9 -60 -23 -77 -30 -42 -19
-144 -52 -181 -60 -41 -8 -246 61 -360 120 -16 8 -35 15 -43 15 -8 0 -22 6
-30 14 -9 8 -37 21 -62 29 -25 9 -70 26 -100 40 -56 25 -80 33 -269 96 -108
36 -257 82 -262 81 -2 0 -25 6 -53 15 -27 9 -68 20 -90 25 -165 37 -287 61
-325 65 -25 3 -58 7 -75 10 -33 6 -138 14 -282 22 -78 4 -93 8 -93 21 -1 10
-3 51 -5 92 -2 41 -4 90 -4 108 0 18 -5 80 -11 138 -6 59 -9 109 -6 111 3 3
38 11 78 18 226 39 378 212 378 432 0 64 -4 80 -38 145 -33 64 -37 80 -35 137
2 85 -28 155 -88 202 -64 49 -85 59 -139 66 -35 4 -51 11 -60 27 -26 49 -131
106 -195 106 -23 0 -25 4 -26 45 -1 25 -2 51 -3 58 -1 6 0 16 2 21 5 10 173 0
256 -14z m-229 -251 c61 -15 83 -29 104 -65 13 -21 31 -36 48 -39 164 -35 221
-98 183 -203 -17 -47 -15 -53 44 -126 41 -51 48 -144 16 -218 -93 -220 -416
-264 -680 -93 -88 58 -133 107 -170 187 -100 223 17 491 242 552 64 17 158 20
213 5z m4545 -19 c175 -76 273 -262 234 -446 -17 -83 -43 -134 -101 -198 -48
-54 -145 -119 -203 -137 -19 -6 -44 -14 -55 -19 -71 -32 -195 -39 -296 -18
-79 16 -155 69 -204 143 -33 50 -40 69 -43 121 -5 78 10 125 54 166 37 35 40
47 22 111 -6 24 -8 55 -4 70 15 60 95 116 165 117 15 0 39 16 64 43 55 57 108
75 222 72 70 -1 102 -7 145 -25z"/>
<path d="M2343 3922 c-41 -22 -58 -46 -72 -99 -15 -56 1 -121 41 -162 26 -27
37 -31 83 -31 46 0 58 4 84 30 49 50 63 121 35 190 -29 73 -109 107 -171 72z"/>
<path d="M3565 3912 c-62 -21 -95 -77 -91 -156 4 -67 27 -109 70 -130 67 -32
138 -9 173 56 22 42 22 132 0 174 -26 49 -94 74 -152 56z"/>
<path d="M2877 3520 c-19 -27 -13 -45 25 -86 l28 -30 -25 -24 c-64 -60 3 -121
76 -69 l29 20 26 -20 c33 -26 56 -27 77 -3 23 25 21 39 -8 67 l-24 25 25 27
c34 37 41 69 19 93 -21 23 -58 18 -92 -12 -22 -20 -22 -20 -52 1 -46 33 -85
37 -104 11z"/>
<path d="M2772 2103 c-44 -9 -55 -52 -48 -197 4 -72 9 -196 11 -276 8 -216 24
-526 36 -685 5 -77 12 -176 15 -220 3 -44 7 -90 10 -102 11 -56 80 -73 111
-27 20 31 20 30 -2 424 -25 458 -35 656 -41 854 -6 181 -7 190 -30 213 -13 12
-27 22 -31 22 -4 -1 -18 -4 -31 -6z"/>
<path d="M3214 2056 c-18 -14 -19 -27 -16 -308 1 -161 5 -304 7 -318 2 -14 7
-106 10 -205 3 -99 10 -285 17 -413 l11 -233 29 -15 c35 -18 63 -11 85 22 17
27 16 172 -6 709 -5 121 -13 334 -17 474 -7 248 -7 255 -30 278 -26 26 -61 30
-90 9z"/>
</g>
</svg>
